<svg width="44" height="44" viewBox="0 0 44 44" fill="none" xmlns="http://www.w3.org/2000/svg">
<path d="M32.3685 12.9923C32.1248 12.6161 31.8292 12.3597 31.5541 12.1861C31.5527 11.7191 31.5219 11.0587 31.4107 10.297C31.4858 9.38811 31.7481 4.38365 28.6862 2.12731C26.7976 0.735541 24.6947 0 22.6048 0C20.9062 0 19.2886 0.482711 18.0496 1.35916C16.9338 2.14865 16.3193 3.00738 15.994 3.61188C15.0318 3.6459 13.0383 4.03823 12.1566 6.58001C11.3225 8.98431 11.996 10.4697 12.4914 11.1581C12.459 11.5563 12.4473 11.9063 12.4465 12.1859C12.1713 12.3595 11.8758 12.6159 11.6321 12.9921C11.0805 13.8434 10.9867 14.985 11.3531 16.3858C12.0381 19.0051 13.6366 19.5816 14.4895 19.6974C15.0149 20.7477 16.1695 22.8944 17.325 23.9729C17.7865 24.4037 18.3866 24.7672 19.1085 25.0539C20.0298 25.4194 21.0029 25.6048 22.0003 25.6048C22.9977 25.6048 23.9708 25.4194 24.8921 25.0539C25.614 24.7672 26.2141 24.4037 26.6756 23.9729C27.8311 22.8944 28.9857 20.7477 29.5111 19.6974C30.3638 19.5816 31.9623 19.0049 32.6475 16.3856C33.0139 14.9852 32.9201 13.8434 32.3685 12.9923ZM30.7 15.8765C30.2825 17.4732 29.5363 17.7116 29.1284 17.7116C29.0995 17.7116 29.0777 17.7099 29.0648 17.7089C28.599 17.5912 28.1682 17.836 27.9645 18.2742C27.566 19.1309 26.3103 21.5606 25.3022 22.5016C25.025 22.7603 24.6371 22.9898 24.1495 23.1832C22.7815 23.7261 21.2189 23.7261 19.851 23.1832C19.3635 22.9898 18.9756 22.7603 18.6984 22.5016C17.6903 21.5606 16.4346 19.1309 16.0361 18.2742C15.8666 17.9098 15.5407 17.6798 15.1677 17.6798C15.092 17.6798 15.0143 17.6892 14.9356 17.7091C14.9227 17.7104 14.9009 17.7118 14.8722 17.7118C14.4645 17.7118 13.7183 17.4732 13.3006 15.8769C13.0951 15.0913 13.0969 14.4646 13.3055 14.1128C13.4268 13.9082 13.5991 13.8394 13.6555 13.8217C14.1956 13.7631 14.5209 13.2903 14.4758 12.7453C14.4748 12.7321 14.4396 12.2642 14.4843 11.5523C15.1769 11.2545 16.2836 10.6674 17.2167 9.65966C17.6915 9.14655 18.039 8.5179 18.2864 7.94118C18.9609 8.49193 19.9159 9.13911 21.1794 9.69831C23.3436 10.6561 27.6686 11.1116 29.4944 11.2672C29.5699 12.1362 29.5258 12.7292 29.5246 12.7433C29.4771 13.2899 29.803 13.7631 30.3449 13.8217C30.4012 13.8394 30.5736 13.9084 30.6949 14.1128C30.9037 14.4644 30.9055 15.0911 30.7 15.8765ZM37.1544 29.319L28.3547 25.7993C28.1014 25.6982 27.8182 25.7041 27.569 25.8154C27.3202 25.9271 27.1271 26.135 27.0345 26.3915L24.8225 32.5073L24.3845 31.248L25.0814 29.5444C25.2082 29.234 25.1723 28.8807 24.9853 28.6022C24.7983 28.3238 24.4851 28.1567 24.1497 28.1567H19.851C19.5157 28.1567 19.2023 28.3238 19.0155 28.6022C18.8284 28.8807 18.7926 29.234 18.9194 29.5444L19.6163 31.248L19.1783 32.5073L16.9662 26.3915C16.8736 26.135 16.6806 25.9269 16.4318 25.8154C16.1826 25.7039 15.8992 25.698 15.6461 25.7993L6.84622 29.319C4.144 30.3997 2.39795 32.979 2.39795 35.8895V42.9935C2.39795 43.5495 2.84865 44 3.40444 44H40.5962C41.1519 44 41.6026 43.5495 41.6026 42.9935V35.8895C41.6026 32.979 39.8566 30.3999 37.1544 29.319ZM36.8486 38.7936C36.8486 39.3496 36.3979 39.8001 35.8421 39.8001H29.0846C28.5288 39.8001 28.0781 39.3496 28.0781 38.7936V35.6554C28.0781 35.0994 28.5288 34.6489 29.0846 34.6489H35.8421C36.3979 34.6489 36.8486 35.0994 36.8486 35.6554V38.7936Z" fill="#3DA52A"/>
</svg>
