<svg width="44" height="44" viewBox="0 0 44 44" fill="none" xmlns="http://www.w3.org/2000/svg">
<path d="M37.7839 41.4123L20.4782 32.2493C20.0272 32.01 19.4772 32.043 19.0509 32.3318L5.81793 41.4948C5.32293 41.8385 5.10843 42.4628 5.28993 43.0375C5.46593 43.6068 5.99943 44 6.59893 44H37.1377C37.7674 44 38.3202 43.571 38.4714 42.955C38.6254 42.3418 38.3394 41.7065 37.7839 41.4123Z" fill="#3DA52A"/>
<path d="M43.5755 38.7998L39.5055 20.4765C39.4065 20.0282 39.0902 19.6625 38.664 19.4947C38.235 19.327 37.7537 19.3847 37.3797 19.6432L24.144 28.8063C23.748 29.0813 23.5252 29.5405 23.5555 30.0163C23.583 30.4975 23.8607 30.9265 24.2842 31.1493L41.5872 40.3123C41.7907 40.4195 42.0107 40.4745 42.2307 40.4745C42.525 40.4745 42.8192 40.381 43.064 40.1913C43.4902 39.8668 43.691 39.325 43.5755 38.7998Z" fill="#3DA52A"/>
<path d="M34 17.4652C33.8185 16.8905 33.2878 16.5 32.6855 16.5H20.1345C17.852 20.6333 14.475 24.585 13.0863 26.1305C12.3053 26.9995 11.186 27.5 10.0173 27.5C8.84855 27.5 7.72929 26.9995 6.94829 26.1305C6.41205 25.5337 5.58155 24.5795 4.63005 23.397L1.30255 38.3735C1.18155 38.9263 1.4098 39.4955 1.8773 39.8118C2.1083 39.9685 2.3778 40.0455 2.64455 40.0455C2.91955 40.0455 3.1918 39.9657 3.4283 39.8007L33.4665 19.0025C33.9643 18.6642 34.176 18.04 34 17.4652Z" fill="#3DA52A"/>
<path d="M10.0176 0C4.71008 0 0.392578 4.3175 0.392578 9.625C0.392578 14.564 8.11458 23.3117 8.99458 24.2935C9.25583 24.5822 9.62708 24.75 10.0176 24.75C10.4081 24.75 10.7793 24.5822 11.0406 24.2935C11.9206 23.3117 19.6426 14.564 19.6426 9.625C19.6426 4.3175 15.3251 0 10.0176 0ZM10.0176 13.75C7.74058 13.75 5.89258 11.902 5.89258 9.625C5.89258 7.348 7.74058 5.5 10.0176 5.5C12.2946 5.5 14.1426 7.348 14.1426 9.625C14.1426 11.902 12.2946 13.75 10.0176 13.75Z" fill="#3DA52A"/>
</svg>
